<?xml version="1.0" encoding="utf-8"?>
<!-- Generator: Adobe Illustrator 20.1.0, SVG Export Plug-In . SVG Version: 6.00 Build 0)  -->
<svg version="1.1" id="Слой_1" xmlns="http://www.w3.org/2000/svg" xmlns:xlink="http://www.w3.org/1999/xlink" x="0px" y="0px"
	 viewBox="0 0 118 36.3" style="enable-background:new 0 0 118 36.3;" xml:space="preserve">
<style type="text/css">
	.st0{fill:#FFFFFF;stroke:#FFFFFF;stroke-miterlimit:10;}
</style>
<path class="st0" d="M34.3,25.7l-1.1,6.1c-5,2.7-9.5,4.3-15.4,4.5C7.7,36.6,1,30.7,1,20.3C1,8.2,9.3-0.1,21.7,0
	c6,0.1,10.2,2.1,12,3.3l-3.4,7.6c-1.5-0.7-4.3-1.2-6.7-1.2c-6.1,0-9.1,4-9.3,9.1c-0.2,5.3,3.1,8.8,7.9,9.3
	C28.8,28.7,32.8,26.5,34.3,25.7z"/>
<path class="st0" d="M56.8,27.6c-0.3,1.8,0.4,2.9,4.7,1.1l1.5,4.5c-5.3,2.5-8.5,3.1-10.6,3.1c-3.2,0-5.1-1.3-5.8-3.2
	c-2.3,2.2-4.8,3.2-7.6,3.2c-4.5,0-7.2-3.3-6.6-7.7l2.2-15.2h10.2l-1.8,12.8c-0.2,1.1,0.6,2.1,1.6,2.1c1,0,2-0.9,2.2-2.1l1.8-12.8
	h10.2L56.8,27.6z"/>
<path class="st0" d="M77.2,15.5l1.5-11.1h10.2l-3.3,23.3c-0.2,1.7,0.5,2.9,4.8,0.6l1.7,4.8c-1.7,1-5.8,3.3-10.9,3.2
	c-3.1,0-5.1-1.4-5.8-3.5c-1.8,2.1-3.9,3.5-7.2,3.5c-4.7,0-7.5-4.4-7.5-9.9c0-7.7,5-13.6,11.1-13.6C74.3,12.7,75.9,13.8,77.2,15.5z
	 M76.8,23.9c0-1.8-1-3.2-2.5-3.2c-2,0-3.6,2-3.6,4.4c0,1.8,0.9,3.2,2.5,3.2C75.2,28.2,76.8,26.2,76.8,23.9z"/>
<path class="st0" d="M106.5,15.5l0.3-2.2H117l-2,14.4c-0.2,1.7,0.8,1.9,2.4,1.6l-0.4,4.4c-2.2,1.7-4.3,2.6-6.5,2.6
	c-3.1,0-5.1-1.4-5.8-3.5c-1.8,2.1-4,3.5-7.2,3.5c-4.7,0-7.5-4.4-7.5-9.9c0-7.6,5-13.6,11.1-13.6C103.6,12.7,105.3,13.8,106.5,15.5z
	 M106.1,23.9c0-1.8-1-3.2-2.5-3.2c-2,0-3.6,2-3.6,4.4c0,1.8,0.9,3.2,2.5,3.2C104.5,28.2,106.1,26.2,106.1,23.9z"/>
</svg>
